<?xml version="1.0" encoding="UTF-8"?>
<svg id="Layer_1" xmlns="http://www.w3.org/2000/svg" version="1.1" xmlns:serif="http://www.serif.com/" xmlns:xlink="http://www.w3.org/1999/xlink" viewBox="0 0 1024 1024">
  <!-- Generator: Adobe Illustrator 29.2.1, SVG Export Plug-In . SVG Version: 2.1.0 Build 116)  -->
  <defs>
    <style>
      .st0 {
        stroke: #000;
        stroke-miterlimit: 10;
      }

      .st1 {
        fill: #1ed760;
      }
    </style>
  </defs>
  <rect class="st0" x="0" width="1024" height="1024"/>
  <path class="st1" d="M839.1,460.5c-10.8,0-17.4-2.6-26.6-8-147-87.8-409.7-108.8-579.8-61.4-7.4,2-16.8,5.4-26.6,5.4-27.2,0-48.2-21.2-48.2-48.8s17.4-44,36-49.4c72.6-21.2,154-31.4,242.5-31.4,150.8,0,308.5,31.4,423.9,98.6,16.2,9.2,26.6,22,26.6,46.6.2,28.4-22.6,48.4-47.8,48.4M775.2,617.8c-10.8,0-18-4.8-25.4-8.6-129-76.4-321.3-107.2-492.4-60.6-10,2.6-15.2,5.4-24.6,5.4-22,0-40-18-40-40s10.8-36.8,32-42.8c57.4-16.2,116-28,201.9-28,134,0,263.3,33.2,365.3,94,16.8,10,23.4,22.8,23.4,40.6-.4,22-17.6,40-40.2,40M719.6,753.2c-8.6,0-14-2.6-22-7.4-128.8-77.6-278.7-81-426.7-50.6-8,2-18.6,5.4-24.6,5.4-20,0-32.6-15.8-32.6-32.6s12.6-31.4,28-34.6c168.9-37.4,341.7-34,489,54,12.6,8,20,15.2,20,34s-14.4,31.8-31.2,31.8"/>
</svg>